HIERARCHY
ROOT Hips
{
  OFFSET 0 0 0
  CHANNELS 6 Xposition Yposition Zposition Zrotation Xrotation Yrotation
  JOINT Spine
  {
    OFFSET 0 10 0
    CHANNELS 3 Zrotation Xrotation Yrotation
    JOINT Neck
    {
      OFFSET 0 30 0
      CHANNELS 3 Zrotation Xrotation Yrotation
      JOINT Head
      {
        OFFSET 0 8 0
        CHANNELS 3 Zrotation Xrotation Yrotation
        End Site
        {
          OFFSET 0 10 0
        }
      }
    }
    JOINT LeftArm
    {
      OFFSET 15 30 0
      CHANNELS 3 Zrotation Xrotation Yrotation
      JOINT LeftForeArm
      {
        OFFSET 25 0 0
        CHANNELS 3 Zrotation Xrotation Yrotation
        JOINT LeftHand
        {
          OFFSET 25 0 0
          CHANNELS 3 Zrotation Xrotation Yrotation
          End Site
          {
            OFFSET 10 0 0
          }
        }
      }
    }
    JOINT RightArm
    {
      OFFSET -15 30 0
      CHANNELS 3 Zrotation Xrotation Yrotation
      JOINT RightForeArm
      {
        OFFSET -25 0 0
        CHANNELS 3 Zrotation Xrotation Yrotation
        JOINT RightHand
        {
          OFFSET -25 0 0
          CHANNELS 3 Zrotation Xrotation Yrotation
          End Site
          {
            OFFSET -10 0 0
          }
        }
      }
    }
  }
  JOINT LeftUpLeg
  {
    OFFSET 10 -10 0
    CHANNELS 3 Zrotation Xrotation Yrotation
    JOINT LeftLeg
    {
      OFFSET 0 -35 0
      CHANNELS 3 Zrotation Xrotation Yrotation
      JOINT LeftFoot
      {
        OFFSET 0 -40 0
        CHANNELS 3 Zrotation Xrotation Yrotation
        End Site
        {
          OFFSET 0 0 15
        }
      }
    }
  }
  JOINT RightUpLeg
  {
    OFFSET -10 -10 0
    CHANNELS 3 Zrotation Xrotation Yrotation
    JOINT RightLeg
    {
      OFFSET 0 -35 0
      CHANNELS 3 Zrotation Xrotation Yrotation
      JOINT RightFoot
      {
        OFFSET 0 -40 0
        CHANNELS 3 Zrotation Xrotation Yrotation
        End Site
        {
          OFFSET 0 0 15
        }
      }
    }
  }
}
MOTION
Frames: 26
Frame Time: 0.00833333
8.14893 102.271 -1.02305 -1.28733 1.70099 -93.0618 11.0197 -23.8734 -0.209683 1.16563 -9.75008 0.531577 -3.61313 18.9547 4.64439 -36.8852 49.5835 -27.3264 26.5046 -12.7105 -50.6208 3.74886e-05 -68.8689 4.01911e-05 34.5248 44.3243 32.3878 -26.8694 -13.1509 51.5197 -8.49432e-06 -42.4624 -1.63669e-05 -1.37374 -4.63864 -3.62986 -4.92664 17.7822 -16.733 -0.704469 -1.32692 0.127013 9.52868 -38.0147 11.5875 8.95562 74.2254 -11.0185 -4.11492 -6.12501 0.981118
7.77363 102.383 -1.02842 -1.2102 1.75911 -92.9129 10.9993 -23.7843 -0.14411 1.19866 -9.77733 0.577228 -3.61227 18.9595 4.65816 -36.8788 49.5258 -27.3552 26.4977 -12.7024 -50.604 3.7473e-05 -68.8609 4.01765e-05 34.4785 44.2806 32.4908 -26.847 -13.1237 51.4644 -8.48568e-06 -42.4401 -1.63611e-05 -1.24274 -4.32588 -3.585 -4.95759 17.3892 -16.9551 -0.815666 -1.06987 0.149227 9.85559 -38.7381 11.6748 8.88854 73.9214 -10.8323 -4.08193 -6.71186 0.989049
7.39848 102.487 -1.03435 -1.11914 1.82455 -92.7628 10.9787 -23.6951 -0.0785473 1.23171 -9.80456 0.622899 -3.61141 18.9644 4.67192 -36.8725 49.4681 -27.3839 26.4909 -12.6943 -50.5873 3.74574e-05 -68.8529 4.0162e-05 34.4324 44.2369 32.5936 -26.8247 -13.0965 51.4091 -8.47705e-06 -42.4178 -1.63553e-05 -1.10246 -4.03924 -3.52693 -4.99364 17.0289 -17.1946 -0.916633 -0.839709 0.169704 10.1799 -39.3961 11.7497 8.72886 73.502 -10.5958 -4.04844 -7.29444 0.998354
7.02283 102.583 -1.04082 -1.00787 1.89838 -92.6096 10.9529 -23.6132 -0.0121664 1.25902 -9.82619 0.668097 -3.60538 18.9681 4.68505 -36.851 49.4164 -27.4161 26.4839 -12.686 -50.5703 3.74514e-05 -68.8498 4.01564e-05 34.391 44.1944 32.6989 -26.8026 -13.0696 51.3545 -8.46881e-06 -42.3964 -1.63497e-05 -0.948311 -3.78843 -3.44511 -5.03662 16.7036 -17.464 -1.00694 -0.635394 0.188208 10.5046 -39.9943 11.811 8.4692 72.9617 -10.3187 -4.02354 -7.88002 1.01076
6.64552 102.672 -1.04738 -0.872592 1.97757 -92.4488 10.9266 -23.532 0.0542904 1.28581 -9.84729 0.713263 -3.59887 18.9716 4.69812 -36.8281 49.3653 -27.4486 26.477 -12.6778 -50.5533 3.74463e-05 -68.8471 4.01516e-05 34.3502 44.152 32.8043 -26.7805 -13.0428 51.3 -8.46062e-06 -42.3752 -1.63441e-05 -0.779083 -3.57213 -3.33493 -5.08638 16.4058 -17.7708 -1.08573 -0.447995 0.204644 10.827 -40.5398 11.8527 8.1149 72.2895 -10.01 -4.00614 -8.468 1.02539
6.26617 102.754 -1.05353 -0.71685 2.05716 -92.2787 10.8929 -23.456 0.129372 1.3045 -9.86106 0.747484 -3.58758 18.9715 4.70952 -36.7784 49.3268 -27.499 26.4695 -12.669 -50.5352 3.74493e-05 -68.8487 4.01544e-05 34.3242 44.1041 32.9012 -26.7582 -13.0157 51.2448 -8.45171e-06 -42.3522 -1.63382e-05 -0.598508 -3.38505 -3.20354 -5.14143 16.1331 -18.1076 -1.15277 -0.271843 0.219069 11.1414 -41.0324 11.8701 7.68876 71.4829 -9.67838 -3.98627 -9.05066 1.03993
5.88637 102.829 -1.05929 -0.553132 2.13492 -92.1043 10.8576 -23.381 0.206186 1.32158 -9.87335 0.779519 -3.57532 18.9707 4.72058 -36.7234 49.2907 -27.5529 26.462 -12.66 -50.5168 3.7454e-05 -68.8511 4.01588e-05 34.3012 44.0551 32.9963 -26.7359 -12.9885 51.1894 -8.44267e-06 -42.3288 -1.63321e-05 -0.413549 -3.27059 -3.06954 -5.20378 15.9446 -18.4453 -1.20943 -0.117234 0.231557 11.4429 -41.4593 11.8677 7.22555 70.5611 -9.33292 -3.9527 -9.61887 1.05303
5.50849 102.89 -1.06491 -0.3985 2.20963 -91.9321 10.8206 -23.3118 0.288104 1.3329 -9.88101 0.804865 -3.56137 18.9695 4.73121 -36.6507 49.2641 -27.618 26.4543 -12.651 -50.4981 3.74647e-05 -68.8566 4.01688e-05 34.2902 44.003 33.0834 -26.7136 -12.9615 51.1343 -8.43269e-06 -42.3029 -1.63254e-05 -0.234713 -3.12943 -2.96042 -5.26128 15.7683 -18.7578 -1.25575 -0.00390659 0.241841 11.7236 -41.7845 11.8492 6.75444 69.5267 -8.9702 -3.88599 -10.1562 1.06216
5.13435 102.939 -1.07089 -0.266975 2.28343 -91.7675 10.783 -23.2446 0.371728 1.3423 -9.88712 0.827981 -3.54686 18.9681 4.74171 -36.572 49.2406 -27.6868 26.4467 -12.6418 -50.4793 3.74774e-05 -68.8632 4.01807e-05 34.2832 43.95 33.168 -26.6914 -12.9346 51.0792 -8.42241e-06 -42.2761 -1.63184e-05 -0.0697185 -2.99511 -2.89544 -5.31398 15.652 -19.0156 -1.29518 0.0621119 0.250243 11.9828 -42.0076 11.8244 6.3204 68.4211 -8.6048 -3.77757 -10.6563 1.06628
4.76454 102.973 -1.07776 -0.158683 2.36102 -91.6103 10.7452 -23.1844 0.447529 1.35067 -9.89183 0.861974 -3.52924 18.969 4.75308 -36.4967 49.2142 -27.7422 26.4394 -12.6332 -50.4615 3.74974e-05 -68.8734 4.01993e-05 34.2689 43.905 33.265 -26.67 -12.9085 51.026 -8.41341e-06 -42.2527 -1.63124e-05 0.0862071 -2.8672 -2.87564 -5.36093 15.5998 -19.2185 -1.33221 0.0691933 0.25749 12.2283 -42.123 11.8 5.92542 67.2262 -8.23661 -3.61478 -11.1439 1.06539
4.39836 102.996 -1.0855 -0.0675171 2.44393 -91.4567 10.7075 -23.1276 0.519424 1.35853 -9.89583 0.901406 -3.51007 18.9711 4.76489 -36.4232 49.1862 -27.7909 26.4323 -12.6248 -50.4441 3.75209e-05 -68.8855 4.02213e-05 34.251 43.864 33.3683 -26.6489 -12.883 50.9738 -8.40504e-06 -42.231 -1.63067e-05 0.238394 -2.66364 -2.89182 -5.39625 15.5232 -19.387 -1.36723 0.0195985 0.263686 12.4634 -42.1373 11.7745 5.56213 65.9291 -7.87062 -3.40009 -11.6297 1.0603
4.0348 103.008 -1.09368 0.0107333 2.53013 -91.3022 10.671 -23.0786 0.573698 1.36908 -9.90097 0.965078 -3.48679 18.9773 4.77856 -36.3694 49.1455 -27.8077 26.4259 -12.6174 -50.4287 3.75522e-05 -68.9016 4.02504e-05 34.211 43.8392 33.4996 -26.629 -12.8589 50.9248 -8.39965e-06 -42.2169 -1.63031e-05 0.385884 -2.47364 -2.93722 -5.42683 15.5022 -19.5213 -1.3964 -0.0745132 0.268274 12.6837 -42.059 11.741 5.22668 64.5368 -7.51432 -3.14676 -12.0986 1.05169
3.673 103.007 -1.10164 0.0763292 2.61496 -91.1442 10.6354 -23.035 0.615393 1.38156 -9.90689 1.04607 -3.46058 18.9866 4.79357 -36.3297 49.0958 -27.8018 26.4202 -12.6106 -50.4148 3.7589e-05 -68.9205 4.02849e-05 34.155 43.8259 33.6509 -26.61 -12.836 50.878 -8.39638e-06 -42.2084 -1.63009e-05 0.521405 -2.46232 -3.00997 -5.46409 15.6943 -19.6062 -1.413 -0.195705 0.270242 12.8787 -41.8943 11.6901 4.92008 63.0745 -7.17394 -2.87381 -12.5135 1.03971
3.31214 102.996 -1.10869 0.129567 2.69332 -90.9809 10.6008 -22.9998 0.629784 1.39876 -9.91418 1.16207 -3.42892 19.0011 4.81039 -36.3181 49.0272 -27.7517 26.4149 -12.6044 -50.402 3.76345e-05 -68.9437 4.03273e-05 34.0683 43.8343 33.8436 -26.5921 -12.8145 50.834 -8.39658e-06 -42.209 -1.6301e-05 0.638799 -2.42705 -3.10861 -5.49303 15.8912 -19.6621 -1.41033 -0.326516 0.268546 13.0378 -41.65 11.6122 4.64133 61.5678 -6.85305 -2.60015 -12.8377 1.02443
2.9512 102.971 -1.11364 0.168392 2.75577 -90.8111 10.5673 -22.9731 0.61687 1.4207 -9.92279 1.3131 -3.39183 19.0208 4.82903 -36.3345 48.9395 -27.6576 26.4101 -12.5987 -50.3904 3.76887e-05 -68.9713 4.03779e-05 33.9507 43.8641 34.078 -26.5752 -12.7943 50.7927 -8.40024e-06 -42.2185 -1.63035e-05 0.725001 -2.31149 -3.23589 -5.50806 16.0326 -19.6897 -1.37453 -0.4427 0.260815 13.1374 -41.3224 11.4877 4.38776 60.0486 -6.55272 -2.35369 -12.9976 1.00548
2.59128 102.931 -1.11798 0.184533 2.80399 -90.6319 10.5342 -22.9524 0.588067 1.4448 -9.9316 1.48468 -3.3512 19.0437 4.84878 -36.3652 48.8413 -27.5384 26.4056 -12.5934 -50.3795 3.77492e-05 -69.0021 4.04343e-05 33.8148 43.9062 34.3371 -26.559 -12.775 50.7531 -8.40594e-06 -42.2333 -1.63074e-05 0.776899 -2.20519 -3.4052 -5.51436 16.224 -19.6693 -1.30337 -0.547526 0.24652 13.175 -40.8978 11.3146 4.15373 58.478 -6.24483 -2.0907 -12.9906 0.978887
2.233 102.875 -1.12182 0.177831 2.84018 -90.4442 10.5019 -22.94 0.537003 1.47193 -9.94067 1.68505 -3.3056 19.0711 4.87009 -36.416 48.7282 -27.3841 26.4016 -12.5887 -50.3698 3.78184e-05 -69.0372 4.04989e-05 33.6534 43.9655 34.631 -26.5437 -12.7569 50.716 -8.4145e-06 -42.2556 -1.63132e-05 0.799329 -2.10219 -3.61755 -5.51215 16.4637 -19.6008 -1.20131 -0.652631 0.226352 13.1604 -40.3709 11.1017 3.94303 56.8385 -5.93066 -1.79842 -12.8415 0.94453
1.87569 102.808 -1.12408 0.157977 2.86519 -90.2537 10.4706 -22.9304 0.487498 1.49831 -9.94974 1.8857 -3.25948 19.0993 4.8922 -36.4659 48.6155 -27.2287 26.3982 -12.5847 -50.3615 3.78906e-05 -69.0737 4.05664e-05 33.4895 44.0251 34.9251 -26.5293 -12.7398 50.6806 -8.42384e-06 -42.2799 -1.63194e-05 0.801094 -1.98386 -3.8569 -5.50314 16.7161 -19.5009 -1.07653 -0.760218 0.2019 13.1106 -39.7644 10.8623 3.75886 55.1619 -5.63369 -1.5086 -12.5832 0.90667
1.51821 102.734 -1.1236 0.137987 2.88044 -90.0669 10.4412 -22.9262 0.44109 1.52316 -9.95892 2.08687 -3.21231 19.1292 4.91593 -36.5145 48.5036 -27.0706 26.396 -12.5821 -50.3563 3.79686e-05 -69.1129 4.06393e-05 33.321 44.0863 35.2191 -26.5163 -12.7244 50.6489 -8.4347e-06 -42.3081 -1.63267e-05 0.792115 -1.84465 -4.10155 -5.49055 16.9512 -19.3901 -0.938441 -0.869348 0.175 13.045 -39.1099 10.6107 3.59826 53.4962 -5.37966 -1.2679 -12.2514 0.871105
1.15941 102.659 -1.11958 0.130888 2.88878 -89.8905 10.413 -22.9224 0.406548 1.54556 -9.96805 2.27612 -3.16649 19.1585 4.9402 -36.5535 48.3987 -26.9256 26.3946 -12.5804 -50.3528 3.80473e-05 -69.1524 4.07128e-05 33.16 44.1413 35.4983 -26.5039 -12.7097 50.6188 -8.44549e-06 -42.336 -1.6334e-05 0.781921 -1.70067 -4.32984 -5.47906 17.1606 -19.2873 -0.796436 -0.979076 0.147476 12.9815 -38.4385 10.3606 3.45261 51.8893 -5.18919 -1.12308 -11.8815 0.843761
0.798169 102.589 -1.11158 0.14962 2.89433 -89.7303 10.3882 -22.9202 0.407592 1.56055 -9.97723 2.42956 -3.12468 19.1859 4.96612 -36.5655 48.3153 -26.8186 26.3954 -12.5814 -50.3548 3.81275e-05 -69.1925 4.07877e-05 33.0232 44.1789 35.7316 -26.4935 -12.6974 50.5935 -8.45603e-06 -42.3633 -1.63411e-05 0.77974 -1.58129 -4.52006 -5.4745 17.3491 -19.2098 -0.659883 -1.08841 0.121272 12.9359 -37.7833 10.1237 3.31053 50.3907 -5.0795 -1.12109 -11.5092 0.830597
0.433474 102.519 -1.10035 0.200675 2.90286 -89.5802 10.3649 -22.918 0.420434 1.5732 -9.98635 2.57183 -3.08376 19.2129 4.99244 -36.5686 48.2387 -26.7237 26.3967 -12.583 -50.358 3.82085e-05 -69.2328 4.08634e-05 32.8945 44.2109 35.9511 -26.4835 -12.6856 50.5693 -8.46644e-06 -42.3903 -1.63481e-05 0.783306 -1.41002 -4.66901 -5.46927 17.4313 -19.1706 -0.511168 -1.19964 0.0931615 12.8966 -37.1244 9.88161 3.14624 48.9923 -5.05496 -1.3198 -11.0799 0.834174
0.0669567 102.443 -1.08764 0.267893 2.9128 -89.4325 10.349 -22.9166 0.492257 1.57396 -9.99535 2.65825 -3.04722 19.2383 5.02089 -36.5287 48.1963 -26.6889 26.4006 -12.5875 -50.3673 3.82922e-05 -69.2743 4.09417e-05 32.8073 44.216 36.0997 -26.4758 -12.6764 50.5506 -8.47624e-06 -42.4157 -1.63547e-05 0.782997 -1.2806 -4.8016 -5.46944 17.5299 -19.1383 -0.344534 -1.31331 0.061968 12.8508 -36.4358 9.6262 2.96107 47.6374 -5.07605 -1.64724 -10.5736 0.846632
-0.300826 102.369 -1.07333 0.349873 2.92311 -89.2958 10.3337 -22.9154 0.567745 1.57394 -10.0044 2.74142 -3.01087 19.2636 5.04954 -36.4861 48.156 -26.6574 26.4046 -12.5922 -50.3772 3.83767e-05 -69.3161 4.10208e-05 32.7223 44.2196 36.2441 -26.4683 -12.6675 50.5323 -8.4861e-06 -42.4411 -1.63614e-05 0.783433 -1.11656 -4.91352 -5.46722 17.5692 -19.1206 -0.178674 -1.42702 0.0310243 12.8122 -35.7402 9.37737 2.7636 46.3561 -5.13743 -2.07481 -10.0448 0.868203
-0.669352 102.302 -1.05742 0.445246 2.93405 -89.1794 10.3247 -22.9177 0.683549 1.56522 -10.0134 2.78881 -2.97657 19.2889 5.08052 -36.4157 48.1387 -26.6625 26.411 -12.5997 -50.3927 3.84666e-05 -69.3604 4.11049e-05 32.6627 44.2078 36.3422 -26.463 -12.6613 50.5197 -8.49646e-06 -42.4679 -1.63684e-05 0.78857 -0.932708 -5.00044 -5.4644 17.5642 -19.1161 -0.0322849 -1.53836 0.00374104 12.793 -35.06 9.15406 2.56324 45.1779 -5.23427 -2.57365 -9.5479 0.899282
-1.03813 102.247 -1.03997 0.552644 2.94677 -89.0933 10.3156 -22.9201 0.799354 1.55651 -10.0224 2.83621 -2.94227 19.3143 5.11148 -36.3453 48.1213 -26.6676 26.4174 -12.6072 -50.4083 3.85569e-05 -69.4047 4.11894e-05 32.6031 44.196 36.4403 -26.4578 -12.6552 50.507 -8.50684e-06 -42.4947 -1.63754e-05 0.802147 -0.753005 -5.05808 -5.46383 17.539 -19.1228 0.0759791 -1.64488 -0.01643 12.8042 -34.4183 8.97417 2.37081 44.1326 -5.36238 -3.11468 -9.13686 0.940074
